<svg xmlns="http://www.w3.org/2000/svg" class="ds-icon">
    <symbol id="blog" viewBox="0 0 16 16">
      <title>blog icon</title>
       <path d="M6 0v1.5c1.148 0 2.261 0.225 3.308 0.667 1.012 0.428 1.921 1.041 2.702 1.822s1.394 1.69 1.822 2.702c0.443 1.047 0.667 2.16 0.667 3.308h1.5c0-5.523-4.477-10-10-10z"/> <path d="M6 3v1.5c1.469 0 2.85 0.572 3.889 1.611s1.611 2.42 1.611 3.889h1.5c0-3.866-3.134-7-7-7z"/> <path d="M7.5 6l-1 1-3.5 1-3 6.5 0.396 0.396 3.638-3.638c-0.022-0.083-0.034-0.169-0.034-0.259 0-0.552 0.448-1 1-1s1 0.448 1 1-0.448 1-1 1c-0.090 0-0.176-0.012-0.259-0.034l-3.638 3.638 0.396 0.396 6.5-3 1-3.5 1-1-2.5-2.5z"/> 
    </symbol>
    <symbol id="camera" viewBox="0 0 16 16">
      <title>camera icon</title>
       <path d="M4.75 9.5c0 1.795 1.455 3.25 3.25 3.25s3.25-1.455 3.25-3.25-1.455-3.25-3.25-3.25-3.25 1.455-3.25 3.25zM15 4h-3.5c-0.25-1-0.5-2-1.5-2h-4c-1 0-1.25 1-1.5 2h-3.5c-0.55 0-1 0.45-1 1v9c0 0.55 0.45 1 1 1h14c0.55 0 1-0.45 1-1v-9c0-0.55-0.45-1-1-1zM8 13.938c-2.451 0-4.438-1.987-4.438-4.438s1.987-4.438 4.438-4.438c2.451 0 4.438 1.987 4.438 4.438s-1.987 4.438-4.438 4.438zM15 7h-2v-1h2v1z"/> 
    </symbol>
    <symbol id="eyedropper" viewBox="0 0 16 16">
      <title>eyedropper icon</title>
       <path d="M15.414 0.586c-0.781-0.781-2.047-0.781-2.828 0l-2.689 2.689-1.896-1.896-2.121 2.121 1.663 1.663-7.377 7.377c-0.126 0.126-0.179 0.296-0.161 0.46h-0.004v2.5c0 0.276 0.224 0.5 0.5 0.5h2.5c0 0 0.042 0 0.063 0 0.144 0 0.288-0.055 0.398-0.165l7.377-7.377 1.663 1.663 2.121-2.121-1.896-1.896 2.689-2.689c0.781-0.781 0.781-2.047 0-2.828zM2.705 15h-1.705v-1.705l7.337-7.337 1.704 1.704-7.337 7.337z"/> 
    </symbol>
    <symbol id="home" viewBox="0 0 16 16">
      <title>home icon</title>
       <path d="M16 9.226l-8-6.21-8 6.21v-2.532l8-6.21 8 6.21zM14 9v6h-4v-4h-4v4h-4v-6l6-4.5z"/> 
    </symbol>
    <symbol id="newspaper" viewBox="0 0 16 16">
      <title>newspaper icon</title>
       <path d="M14 4v-2h-14v11c0 0.552 0.448 1 1 1h13.5c0.828 0 1.5-0.672 1.5-1.5v-8.5h-2zM13 13h-12v-10h12v10zM2 5h10v1h-10zM8 7h4v1h-4zM8 9h4v1h-4zM8 11h3v1h-3zM2 7h5v5h-5z"/> 
    </symbol>
    <symbol id="office" viewBox="0 0 16 16">
      <title>office icon</title>
       <path d="M0 16h8v-16h-8v16zM5 2h2v2h-2v-2zM5 6h2v2h-2v-2zM5 10h2v2h-2v-2zM1 2h2v2h-2v-2zM1 6h2v2h-2v-2zM1 10h2v2h-2v-2zM9 5h7v1h-7zM9 16h2v-4h3v4h2v-9h-7z"/> 
    </symbol>
    <symbol id="pen" viewBox="0 0 16 16">
      <title>pen icon</title>
       <path d="M15.909 4.561l-4.47-4.47c-0.146-0.146-0.338-0.113-0.427 0.073l-0.599 1.248 4.175 4.175 1.248-0.599c0.186-0.089 0.219-0.282 0.073-0.427z"/> <path d="M9.615 2.115l-4.115 0.343c-0.273 0.034-0.501 0.092-0.58 0.449-0 0-0 0.001-0 0.001-1.116 5.36-4.92 10.591-4.92 10.591l0.896 0.896 4.25-4.25c-0.094-0.196-0.146-0.415-0.146-0.647 0-0.828 0.672-1.5 1.5-1.5s1.5 0.672 1.5 1.5-0.672 1.5-1.5 1.5c-0.232 0-0.451-0.053-0.647-0.146l-4.25 4.25 0.896 0.896c0 0 5.231-3.804 10.591-4.92 0-0 0.001-0 0.001-0 0.357-0.078 0.415-0.306 0.449-0.58l0.343-4.115-4.269-4.269z"/> 
    </symbol>
    <symbol id="pencil" viewBox="0 0 16 16">
      <title>pencil icon</title>
       <path d="M13.5 0c1.381 0 2.5 1.119 2.5 2.5 0 0.563-0.186 1.082-0.5 1.5l-1 1-3.5-3.5 1-1c0.418-0.314 0.937-0.5 1.5-0.5zM1 11.5l-1 4.5 4.5-1 9.25-9.25-3.5-3.5-9.25 9.25zM11.181 5.681l-7 7-0.862-0.862 7-7 0.862 0.862z"/> 
    </symbol></svg>