<svg xmlns="http://www.w3.org/2000/svg" class="ds-icon">
    <symbol id="blog" viewBox="0 0 100 100">
      <title>blog icon</title>
      <path d="M6 0v1.5a8.46 8.46 0 0 1 6.01 2.489 8.472 8.472 0 0 1 2.489 6.01h1.5c0-5.523-4.477-10-10-10z"/><path d="M6 3v1.5c1.469 0 2.85.572 3.889 1.611S11.5 8.531 11.5 10H13a7 7 0 0 0-7-7zM7.5 6l-1 1L3 8l-3 6.5.396.396 3.638-3.638a1 1 0 1 1 .707.707l-3.638 3.638.396.396 6.5-3 1-3.5 1-1-2.5-2.5z"/>
    </symbol>
    <symbol id="camera" viewBox="0 0 100 100">
      <title>camera icon</title>
      <path d="M4.75 9.5a3.25 3.25 0 1 0 6.5 0 3.25 3.25 0 0 0-6.5 0zM15 4h-3.5c-.25-1-.5-2-1.5-2H6C5 2 4.75 3 4.5 4H1c-.55 0-1 .45-1 1v9c0 .55.45 1 1 1h14c.55 0 1-.45 1-1V5c0-.55-.45-1-1-1zm-7 9.938a4.438 4.438 0 1 1 0-8.876 4.438 4.438 0 0 1 0 8.876zM15 7h-2V6h2v1z"/>
    </symbol>
    <symbol id="eyedropper" viewBox="0 0 100 100">
      <title>eyedropper icon</title>
      <path d="M15.414.586a2 2 0 0 0-2.828 0L9.897 3.275 8.001 1.379 5.88 3.5l1.663 1.663L.166 12.54a.56.56 0 0 0-.161.46H.001v2.5a.5.5 0 0 0 .5.5h2.563a.561.561 0 0 0 .398-.165l7.377-7.377 1.663 1.663L14.623 8l-1.896-1.896 2.689-2.689a2 2 0 0 0 0-2.828zM2.705 15H1v-1.705l7.337-7.337 1.704 1.704-7.337 7.337z"/>
    </symbol>
    <symbol id="home" viewBox="0 0 100 100">
      <title>home icon</title>
      <path d="M16 9.226l-8-6.21-8 6.21V6.694l8-6.21 8 6.21zM14 9v6h-4v-4H6v4H2V9l6-4.5z"/>
    </symbol>
    <symbol id="newspaper" viewBox="0 0 100 100">
      <title>newspaper icon</title>
      <path d="M14 4V2H0v11a1 1 0 0 0 1 1h13.5a1.5 1.5 0 0 0 1.5-1.5V4h-2zm-1 9H1V3h12v10zM2 5h10v1H2zm6 2h4v1H8zm0 2h4v1H8zm0 2h3v1H8zM2 7h5v5H2z"/>
    </symbol>
    <symbol id="office" viewBox="0 0 100 100">
      <title>office icon</title>
      <path d="M0 16h8V0H0v16zM5 2h2v2H5V2zm0 4h2v2H5V6zm0 4h2v2H5v-2zM1 2h2v2H1V2zm0 4h2v2H1V6zm0 4h2v2H1v-2zm8-5h7v1H9zm0 11h2v-4h3v4h2V7H9z"/>
    </symbol>
    <symbol id="pen" viewBox="0 0 100 100">
      <title>pen icon</title>
      <path d="M15.909 4.561l-4.47-4.47c-.146-.146-.338-.113-.427.073l-.599 1.248 4.175 4.175 1.248-.599c.186-.089.219-.282.073-.427zM9.615 2.115L5.5 2.458c-.273.034-.501.092-.58.449v.001C3.804 8.268 0 13.499 0 13.499l.896.896 4.25-4.25a1.5 1.5 0 1 1 .707.707l-4.25 4.25.896.896s5.231-3.804 10.591-4.92h.001c.357-.078.415-.306.449-.58l.343-4.115-4.269-4.269z"/>
    </symbol>
    <symbol id="pencil" viewBox="0 0 100 100">
      <title>pencil icon</title>
      <path d="M13.5 0a2.5 2.5 0 0 1 2 4l-1 1L11 1.5l1-1c.418-.314.937-.5 1.5-.5zM1 11.5L0 16l4.5-1 9.25-9.25-3.5-3.5L1 11.5zm10.181-5.819l-7 7-.862-.862 7-7 .862.862z"/>
    </symbol></svg>